<?xml version="1.0" ?><svg id="border" viewBox="0 0 48 48" xmlns="http://www.w3.org/2000/svg" xmlns:xlink="http://www.w3.org/1999/xlink"><defs><style>.cls-1,.cls-4,.cls-7{fill:none;}.cls-2{fill:#093;}.cls-2,.cls-3,.cls-4{stroke:#000;}.cls-2,.cls-3,.cls-4,.cls-5,.cls-6,.cls-7,.cls-8{stroke-miterlimit:10;}.cls-3{fill:#fc0;stroke-width:0.1px;}.cls-4,.cls-5,.cls-6,.cls-7,.cls-8{stroke-linecap:round;}.cls-5,.cls-8{fill:#ad9d4d;fill-rule:evenodd;}.cls-5,.cls-6,.cls-7,.cls-8{stroke:#1d1d1b;}.cls-6{fill:url(#Degradado_sin_nombre_6);}.cls-7,.cls-8{stroke-width:0.25px;}</style><radialGradient cx="30" cy="30" gradientUnits="userSpaceOnUse" id="Degradado_sin_nombre_6" r="11"><stop offset="0.88" stop-color="#fff"/><stop offset="1"/></radialGradient><symbol id="material_system_icon_border" viewBox="0 0 48 48"><rect class="cls-1" height="48" width="48"/></symbol></defs><title/><use height="48" id="material_system_icon_border-3" width="48" xlink:href="#material_system_icon_border"/><rect class="cls-2" height="27" width="35" x="4.5" y="4.5"/><path class="cls-3" d="M12,23.44l0-4h2.77l0-3H9.16a1.4,1.4,0,0,1-1.39,1,1.48,1.48,0,0,1,0-3,1.32,1.32,0,0,1,1.39,1h5.62v-3H9.16a1.4,1.4,0,0,1-1.39,1,1.48,1.48,0,0,1,0-3,1.32,1.32,0,0,1,1.39,1h5.59l0-3H9.16a1.4,1.4,0,0,1-1.39,1,1.48,1.48,0,0,1,0-3,1.32,1.32,0,0,1,1.39,1H16v8.7l5,0.06V8.58a1.4,1.4,0,0,1-1-1.39,1.48,1.48,0,0,1,3,0,1.32,1.32,0,0,1-1,1.39V16.2h4V9.58a1.4,1.4,0,0,1-1-1.39,1.48,1.48,0,0,1,3,0,1.32,1.32,0,0,1-1,1.39V16.2h3V8.58a1.4,1.4,0,0,1-1-1.39,1.48,1.48,0,0,1,3,0,1.32,1.32,0,0,1-1,1.39v1l5,0h1v2.76a1.4,1.4,0,0,1,1,1.39,1.48,1.48,0,1,1-3,0,1.32,1.32,0,0,1,1-1.39V10.59l-5,.08V17.2H16v2.24h0.92a1.4,1.4,0,0,1,1.39-1,1.48,1.48,0,1,1,0,3,1.32,1.32,0,0,1-1.39-1H13v3h2.92a1.4,1.4,0,0,1,1.39-1,1.48,1.48,0,1,1,0,3,1.32,1.32,0,0,1-1.39-1H13v4H9.16a1.4,1.4,0,0,1-1.39,1,1.48,1.48,0,0,1,0-3,1.32,1.32,0,0,1,1.39,1H12v-3H9.16a1.4,1.4,0,0,1-1.39,1,1.48,1.48,0,0,1,0-3,1.32,1.32,0,0,1,1.39,1H12"/><rect class="cls-4" height="28" id="base" rx="1" ry="1" width="36" x="4" y="4"/><path class="cls-5" d="M30,16A14,14,0,1,1,16,30,14,14,0,0,1,30,16ZM41,30A11,11,0,1,0,30,41,11,11,0,0,0,41,30Z"/><path class="cls-6" d="M30,19A11,11,0,1,1,19,30,11,11,0,0,1,30,19Z"/><g id="namecoin"><polygon class="cls-7" points="27.76 24.94 32.68 33.46 32.3 34.84 27.38 26.33 27.76 24.94"/><path class="cls-8" d="M31.94,36.21l-0.08.29h0.36a2.29,2.29,0,0,0,2.08-1.64l3-11.36H37a2.25,2.25,0,0,0-2,1.61l-1.87,7-4.92-8.52,0-.07H27.75a2.25,2.25,0,0,0-2,1.61L22.66,36.5H23a2.29,2.29,0,0,0,2.08-1.64L27,27.7Zm-4.56-9.88,0.38-1.39,4.92,8.52L32.3,34.84Z"/></g></svg>